<svg xmlns="http://www.w3.org/2000/svg" width="430" height="650" viewBox="0 0 430 650" role="img" aria-labelledby="title desc">
<title id="title">仕分けカード：タイトルと説明をサムネイル領域内に配置する</title>
<desc id="desc">日本語のスマホ画面。カード中央にタイトルと短い説明、右下に出典、カード下部に日付、下に見送り・元記事・気になる操作を配置する。</desc>
<defs><linearGradient id="frame" x1="0" y1="0" x2="1" y2="1"><stop stop-color="#62caff"/><stop offset="1" stop-color="#a493f5"/></linearGradient></defs>
<rect width="430" height="650" rx="28" fill="#f7f9f7"/>
<g font-family="'Noto Sans JP','Yu Gothic',sans-serif" fill="#183431">
<text x="28" y="48" font-size="29" font-weight="700" fill="#087f72">sift</text>
<rect x="282" y="23" width="66" height="32" rx="16" fill="#e3f3ee"/>
<text x="315" y="44" text-anchor="middle" font-size="12" fill="#087f72">↶ 戻す</text>
<text x="376" y="44" text-anchor="middle" font-size="12" fill="#657777">01 / 10</text>
<text x="28" y="87" font-size="19" font-weight="700">ひとつずつ、気になるを。</text>
<rect x="24" y="119" width="382" height="330" rx="24" fill="#dcece6"/>
<rect x="20" y="111" width="390" height="330" rx="24" fill="#fff" stroke="#dee7e2"/>
<path d="M44 111H386Q410 111 410 135V349H20V135Q20 111 44 111" fill="url(#frame)"/>
<rect x="32" y="123" width="366" height="214" rx="14" fill="#fff"/>
<text x="215" y="182" text-anchor="middle" font-size="23" font-weight="700">
<tspan x="215">VueとNestで</tspan><tspan x="215" dy="34">IT情報を集める</tspan>
</text>
<text x="215" y="251" text-anchor="middle" font-size="12" fill="#657777">
<tspan x="215">記事の収集と仕分けの仕組みを、</tspan><tspan x="215" dy="21">役割ごとに分けて考える。</tspan>
</text>
<rect x="282" y="295" width="22" height="22" rx="6" fill="#3ea8ff"/>
<text x="293" y="311" text-anchor="middle" font-size="15" font-weight="700" fill="#fff">Z</text>
<text x="312" y="312" font-size="13" font-weight="700">Zenn</text>
<text x="36" y="382" font-size="12" fill="#657777">2026/10/09</text>
<text x="36" y="409" font-size="11" fill="#657777">技術記事</text>
<text x="28" y="478" font-size="11" fill="#657777">← 左：見送り</text>
<text x="400" y="478" text-anchor="end" font-size="11" fill="#087f72">右：気になる →</text>
<circle cx="108" cy="520" r="28" fill="#fff" stroke="#dee7e2"/>
<path d="M100 512L116 528M116 512L100 528" stroke="#657777" stroke-width="2" stroke-linecap="round"/>
<rect x="153" y="496" width="124" height="48" rx="24" fill="#fff" stroke="#dee7e2"/>
<text x="215" y="525" text-anchor="middle" font-size="12" fill="#087f72">元記事を開く ↗</text>
<circle cx="322" cy="520" r="28" fill="#087f72"/>
<path d="M322 534L309 522C295 509 314 500 322 513C330 500 349 509 335 522Z" fill="none" stroke="#fff" stroke-width="2"/>
<path d="M0 573H430" stroke="#dee7e2"/>
<rect x="18" y="583" width="124" height="45" rx="18" fill="#e3f3ee"/>
<text x="80" y="611" text-anchor="middle" font-size="12" fill="#087f72">仕分け</text>
<text x="215" y="611" text-anchor="middle" font-size="12" fill="#657777">気になる</text>
<text x="350" y="611" text-anchor="middle" font-size="12" fill="#657777">すべて</text>
</g>
</svg>
